<svg width="120" height="120" viewBox="0 0 120 120" fill="none" xmlns="http://www.w3.org/2000/svg">
  <!-- Dog face shape -->
  <circle cx="60" cy="60" r="50" fill="#FFCC66" />
  
  <!-- Ears -->
  <path d="M20 40C15 25 25 10 40 15C45 17 42 40 40 45C38 50 25 55 20 40Z" fill="#FFB84D" />
  <path d="M100 40C105 25 95 10 80 15C75 17 78 40 80 45C82 50 95 55 100 40Z" fill="#FFB84D" />
  
  <!-- Eyes -->
  <circle cx="45" cy="50" r="5" fill="#663300" />
  <circle cx="75" cy="50" r="5" fill="#663300" />
  
  <!-- Nose -->
  <circle cx="60" cy="65" r="8" fill="#663300" />
  
  <!-- Mouth -->
  <path d="M60 75C50 85 35 80 30 75M60 75C70 85 85 80 90 75" stroke="#663300" stroke-width="3" stroke-linecap="round" />
  
  <!-- Tech element - circuit-like pattern -->
  <path d="M85 25L95 15M95 15H85M95 15V25" stroke="#0066CC" stroke-width="2" stroke-linecap="round" stroke-linejoin="round" />
  <path d="M35 25L25 15M25 15H35M25 15V25" stroke="#0066CC" stroke-width="2" stroke-linecap="round" stroke-linejoin="round" />
  <circle cx="60" cy="15" r="3" fill="#0066CC" />
  <path d="M60 15V25" stroke="#0066CC" stroke-width="2" stroke-linecap="round" />
</svg> 